<svg width="100" height="100" viewBox="0 0 100 100" fill="none" xmlns="http://www.w3.org/2000/svg">
<rect width="100" height="100" rx="50" fill="black"/>
<path d="M31.595 55.48C31.595 56.95 31.94 58.27 32.63 59.44C33.35 60.58 34.295 61.48 35.465 62.14C36.635 62.8 37.955 63.13 39.425 63.13C40.955 63.13 42.32 62.8 43.52 62.14C44.72 61.48 45.665 60.58 46.355 59.44C47.045 58.27 47.39 56.95 47.39 55.48V34.465H51.665V55.615C51.665 57.985 51.11 60.055 50 61.825C48.92 63.595 47.45 64.96 45.59 65.92C43.76 66.88 41.705 67.36 39.425 67.36C37.145 67.36 35.09 66.88 33.26 65.92C31.43 64.96 29.975 63.595 28.895 61.825C27.815 60.055 27.275 57.985 27.275 55.615V34.465H31.595V55.48ZM50.695 34.465H71.845V38.65H55.06V48.55H70.045V52.735H55.06V62.815H72.475V67H50.695V34.465Z" fill="white"/>
</svg>
